HIERARCHY
ROOT newVegas:Hips
{
	OFFSET 0.000000 96.479958 0.000000
	CHANNELS 6 Xposition Yposition Zposition Xrotation Yrotation Zrotation
	JOINT newVegas:Pelvis
	{
		OFFSET 0.000000 0.000000 0.000000
		CHANNELS 3 Xrotation Yrotation Zrotation
		JOINT newVegas:LeftUpLeg
		{
			OFFSET 18.735201 -5.666702 -4.541200
			CHANNELS 3 Xrotation Yrotation Zrotation
			JOINT newVegas:LeftLeg
			{
				OFFSET -0.021200 -31.938179 0.493100
				CHANNELS 3 Xrotation Yrotation Zrotation
				JOINT newVegas:LeftFoot
				{
					OFFSET 0.021200 -31.938179 -4.336299
					CHANNELS 3 Xrotation Yrotation Zrotation
					JOINT newVegas:LeftToeBase
					{
						OFFSET 0.943001 -26.722000 15.023500
						CHANNELS 3 Xrotation Yrotation Zrotation
						End Site
						{
							OFFSET 0.000000 30.670183 0.000000
						}
					}
				}
				JOINT newVegas:Left_PantLeg
				{
					OFFSET 0.663870 -9.044666 -1.108900
					CHANNELS 3 Xrotation Yrotation Zrotation
					End Site
					{
						OFFSET 1.415995 20.635357 0.000000
					}
				}
			}
		}
		JOINT newVegas:RightUpLeg
		{
			OFFSET -18.735201 -5.666702 -4.541200
			CHANNELS 3 Xrotation Yrotation Zrotation
			JOINT newVegas:RightLeg
			{
				OFFSET 0.018946 -31.938133 0.493100
				CHANNELS 3 Xrotation Yrotation Zrotation
				JOINT newVegas:RightFoot
				{
					OFFSET -0.018946 -31.938126 -4.336299
					CHANNELS 3 Xrotation Yrotation Zrotation
					JOINT newVegas:RightToeBase
					{
						OFFSET -0.943001 -26.722004 15.023500
						CHANNELS 3 Xrotation Yrotation Zrotation
						End Site
						{
							OFFSET 0.000000 30.670187 0.000000
						}
					}
				}
				JOINT newVegas:Right_PantLeg
				{
					OFFSET -0.661674 -9.044716 -1.108900
					CHANNELS 3 Xrotation Yrotation Zrotation
					End Site
					{
						OFFSET -1.415958 20.635269 0.000000
					}
				}
			}
		}
	}
	JOINT newVegas:Spine
	{
		OFFSET 0.000000 10.199997 -0.299500
		CHANNELS 3 Xrotation Yrotation Zrotation
		JOINT newVegas:Spine1
		{
			OFFSET 0.000000 11.900002 -1.516600
			CHANNELS 3 Xrotation Yrotation Zrotation
			JOINT newVegas:Spine2
			{
				OFFSET 0.000000 13.600006 -2.842500
				CHANNELS 3 Xrotation Yrotation Zrotation
				JOINT newVegas:Neck
				{
					OFFSET 0.000000 9.624100 -2.890100
					CHANNELS 3 Xrotation Yrotation Zrotation
					JOINT newVegas:Head
					{
						OFFSET 0.000000 14.068802 -1.351900
						CHANNELS 3 Xrotation Yrotation Zrotation
						JOINT newVegas:Hair_Back
						{
							OFFSET 0.000000 3.231903 -17.524799
							CHANNELS 3 Xrotation Yrotation Zrotation
							End Site
							{
								OFFSET 0.000000 19.849884 0.000000
							}
						}
						JOINT newVegas:Hair_Front
						{
							OFFSET 0.000000 31.260406 4.573800
							CHANNELS 3 Xrotation Yrotation Zrotation
							JOINT newVegas:Hair_Front1
							{
								OFFSET 0.000000 2.284103 11.993300
								CHANNELS 3 Xrotation Yrotation Zrotation
								JOINT newVegas:Hair_Front2
								{
									OFFSET 0.000000 2.284103 11.993300
									CHANNELS 3 Xrotation Yrotation Zrotation
									End Site
									{
										OFFSET 0.000000 12.208862 0.000000
									}
								}
							}
						}
						JOINT newVegas:Jowel
						{
							OFFSET 0.000000 -7.458206 6.864100
							CHANNELS 3 Xrotation Yrotation Zrotation
							End Site
							{
								OFFSET 0.000000 19.849884 0.000000
							}
						}
					}
				}
				JOINT newVegas:LeftShoulder
				{
					OFFSET 15.263000 10.923401 -0.547700
					CHANNELS 3 Xrotation Yrotation Zrotation
					JOINT newVegas:LeftArm
					{
						OFFSET 25.438599 -2.830597 -13.032500
						CHANNELS 3 Xrotation Yrotation Zrotation
						JOINT newVegas:LeftForeArm
						{
							OFFSET 29.960503 0.000000 0.000000
							CHANNELS 3 Xrotation Yrotation Zrotation
							JOINT newVegas:LeftHand
							{
								OFFSET 27.849251 0.000000 0.000000
								CHANNELS 3 Xrotation Yrotation Zrotation
								JOINT newVegas:LeftHandThumb1
								{
									OFFSET 4.487587 -3.305161 6.305391
									CHANNELS 3 Xrotation Yrotation Zrotation
									JOINT newVegas:LeftHandThumb2
									{
										OFFSET 5.480453 -3.164139 3.164143
										CHANNELS 3 Xrotation Yrotation Zrotation
										JOINT newVegas:LeftHandThumb3
										{
											OFFSET 5.159721 -2.978973 2.978967
											CHANNELS 3 Xrotation Yrotation Zrotation
											End Site
											{
												OFFSET 2.494507 5.926697 1.738678
											}
										}
									}
								}
								JOINT newVegas:LeftHandIndex1
								{
									OFFSET 18.578728 -0.527832 5.208049
									CHANNELS 3 Xrotation Yrotation Zrotation
									JOINT newVegas:LeftHandIndex2
									{
										OFFSET 3.192009 0.000000 0.000000
										CHANNELS 3 Xrotation Yrotation Zrotation
										JOINT newVegas:LeftHandIndex3
										{
											OFFSET 3.835129 0.000000 0.000000
											CHANNELS 3 Xrotation Yrotation Zrotation
											End Site
											{
												OFFSET -0.034599 3.816971 0.371180
											}
										}
									}
								}
								JOINT newVegas:LeftHandMiddle1
								{
									OFFSET 18.476105 0.000000 0.000000
									CHANNELS 3 Xrotation Yrotation Zrotation
									JOINT newVegas:LeftHandMiddle2
									{
										OFFSET 3.324875 0.000000 0.000000
										CHANNELS 3 Xrotation Yrotation Zrotation
										JOINT newVegas:LeftHandMiddle3
										{
											OFFSET 4.596550 0.000000 0.000000
											CHANNELS 3 Xrotation Yrotation Zrotation
											End Site
											{
												OFFSET 0.057701 4.578827 0.399218
											}
										}
									}
								}
								JOINT newVegas:LeftHandRing1
								{
									OFFSET 17.732719 0.121887 -4.201567
									CHANNELS 3 Xrotation Yrotation Zrotation
									JOINT newVegas:LeftHandRing2
									{
										OFFSET 2.733170 0.000000 0.000000
										CHANNELS 3 Xrotation Yrotation Zrotation
										JOINT newVegas:LeftHandRing3
										{
											OFFSET 3.178268 0.000000 0.000000
											CHANNELS 3 Xrotation Yrotation Zrotation
											End Site
											{
												OFFSET 0.119102 3.170624 0.185394
											}
										}
									}
								}
								JOINT newVegas:LeftHandPinky1
								{
									OFFSET 15.989624 -0.606689 -7.535461
									CHANNELS 3 Xrotation Yrotation Zrotation
									JOINT newVegas:LeftHandPinky2
									{
										OFFSET 2.538986 0.000000 0.000000
										CHANNELS 3 Xrotation Yrotation Zrotation
										JOINT newVegas:LeftHandPinky3
										{
											OFFSET 2.593102 0.000000 0.000000
											CHANNELS 3 Xrotation Yrotation Zrotation
											End Site
											{
												OFFSET -0.150902 2.584198 0.152708
											}
										}
									}
								}
							}
							JOINT newVegas:Left_Sleeve
							{
								OFFSET 0.267448 -0.649796 0.577675
								CHANNELS 3 Xrotation Yrotation Zrotation
								End Site
								{
									OFFSET 0.000000 15.991241 0.000000
								}
							}
							JOINT newVegas:Left_CapeC
							{
								OFFSET 15.715958 -8.608795 -6.935905
								CHANNELS 3 Xrotation Yrotation Zrotation
								JOINT newVegas:Left_CapeC1
								{
									OFFSET 0.000000 -8.688499 0.000000
									CHANNELS 3 Xrotation Yrotation Zrotation
									End Site
									{
										OFFSET 0.000000 8.688499 0.000000
									}
								}
							}
						}
						JOINT newVegas:Left_CapeB
						{
							OFFSET 26.118385 -8.608795 -7.079235
							CHANNELS 3 Xrotation Yrotation Zrotation
							JOINT newVegas:Left_CapeB1
							{
								OFFSET 0.000000 -8.688499 0.000000
								CHANNELS 3 Xrotation Yrotation Zrotation
								End Site
								{
									OFFSET 0.000000 8.688499 0.000000
								}
							}
						}
						JOINT newVegas:Left_CapeA
						{
							OFFSET 5.115639 -8.608795 -10.395809
							CHANNELS 3 Xrotation Yrotation Zrotation
							JOINT newVegas:Left_CapeA1
							{
								OFFSET 0.000000 -8.688499 0.000000
								CHANNELS 3 Xrotation Yrotation Zrotation
								End Site
								{
									OFFSET 0.000000 8.688499 0.000000
								}
							}
						}
					}
				}
				JOINT newVegas:RightShoulder
				{
					OFFSET -15.263000 10.923401 -0.547700
					CHANNELS 3 Xrotation Yrotation Zrotation
					JOINT newVegas:RightArm
					{
						OFFSET -25.438599 -2.830597 -13.032500
						CHANNELS 3 Xrotation Yrotation Zrotation
						JOINT newVegas:RightForeArm
						{
							OFFSET -29.960503 0.000000 0.000000
							CHANNELS 3 Xrotation Yrotation Zrotation
							JOINT newVegas:RightHand
							{
								OFFSET -27.849251 0.000000 0.000000
								CHANNELS 3 Xrotation Yrotation Zrotation
								JOINT newVegas:RightHandThumb1
								{
									OFFSET -4.487587 -3.305161 6.305391
									CHANNELS 3 Xrotation Yrotation Zrotation
									JOINT newVegas:RightHandThumb2
									{
										OFFSET -5.480453 -3.164139 3.164143
										CHANNELS 3 Xrotation Yrotation Zrotation
										JOINT newVegas:RightHandThumb3
										{
											OFFSET -5.159721 -2.978973 2.978967
											CHANNELS 3 Xrotation Yrotation Zrotation
											End Site
											{
												OFFSET -2.494507 5.926697 1.738678
											}
										}
									}
								}
								JOINT newVegas:RightHandIndex1
								{
									OFFSET -18.578728 -0.527832 5.208049
									CHANNELS 3 Xrotation Yrotation Zrotation
									JOINT newVegas:RightHandIndex2
									{
										OFFSET -3.192009 0.000000 0.000000
										CHANNELS 3 Xrotation Yrotation Zrotation
										JOINT newVegas:RightHandIndex3
										{
											OFFSET -3.835129 0.000000 0.000000
											CHANNELS 3 Xrotation Yrotation Zrotation
											End Site
											{
												OFFSET 0.034599 3.816971 0.371180
											}
										}
									}
								}
								JOINT newVegas:RightHandMiddle1
								{
									OFFSET -18.476105 0.000000 0.000000
									CHANNELS 3 Xrotation Yrotation Zrotation
									JOINT newVegas:RightHandMiddle2
									{
										OFFSET -3.324875 0.000000 0.000000
										CHANNELS 3 Xrotation Yrotation Zrotation
										JOINT newVegas:RightHandMiddle3
										{
											OFFSET -4.596550 0.000000 0.000000
											CHANNELS 3 Xrotation Yrotation Zrotation
											End Site
											{
												OFFSET -0.057701 4.578827 0.399218
											}
										}
									}
								}
								JOINT newVegas:RightHandRing1
								{
									OFFSET -17.732719 0.121887 -4.201567
									CHANNELS 3 Xrotation Yrotation Zrotation
									JOINT newVegas:RightHandRing2
									{
										OFFSET -2.733170 0.000000 0.000000
										CHANNELS 3 Xrotation Yrotation Zrotation
										JOINT newVegas:RightHandRing3
										{
											OFFSET -3.178268 0.000000 0.000000
											CHANNELS 3 Xrotation Yrotation Zrotation
											End Site
											{
												OFFSET -0.119102 3.170624 0.185394
											}
										}
									}
								}
								JOINT newVegas:RightHandPinky1
								{
									OFFSET -15.989624 -0.606689 -7.535461
									CHANNELS 3 Xrotation Yrotation Zrotation
									JOINT newVegas:RightHandPinky2
									{
										OFFSET -2.538986 0.000000 0.000000
										CHANNELS 3 Xrotation Yrotation Zrotation
										JOINT newVegas:RightHandPinky3
										{
											OFFSET -2.593102 0.000000 0.000000
											CHANNELS 3 Xrotation Yrotation Zrotation
											End Site
											{
												OFFSET 0.150902 2.584198 0.152708
											}
										}
									}
								}
							}
							JOINT newVegas:Right_CapeC
							{
								OFFSET -15.715958 -8.608795 -6.935905
								CHANNELS 3 Xrotation Yrotation Zrotation
								JOINT newVegas:Right_CapeC1
								{
									OFFSET 0.000000 -8.688499 0.000000
									CHANNELS 3 Xrotation Yrotation Zrotation
									End Site
									{
										OFFSET 0.000000 8.688499 0.000000
									}
								}
							}
							JOINT newVegas:Right_Sleeve
							{
								OFFSET -0.267448 -0.649994 0.577675
								CHANNELS 3 Xrotation Yrotation Zrotation
								End Site
								{
									OFFSET 0.000000 15.991302 0.000000
								}
							}
						}
						JOINT newVegas:Right_CapeA
						{
							OFFSET -5.115540 -8.608795 -10.395824
							CHANNELS 3 Xrotation Yrotation Zrotation
							JOINT newVegas:Right_CapeA1
							{
								OFFSET 0.000000 -8.688499 0.000000
								CHANNELS 3 Xrotation Yrotation Zrotation
								End Site
								{
									OFFSET 0.000000 8.688499 0.000000
								}
							}
						}
						JOINT newVegas:Right_CapeB
						{
							OFFSET -26.118187 -8.608795 -7.079266
							CHANNELS 3 Xrotation Yrotation Zrotation
							JOINT newVegas:Right_CapeB1
							{
								OFFSET 0.000000 -8.688499 0.000000
								CHANNELS 3 Xrotation Yrotation Zrotation
								End Site
								{
									OFFSET 0.000000 8.688499 0.000000
								}
							}
						}
					}
				}
				JOINT newVegas:Left_Collar
				{
					OFFSET 18.625099 8.655502 8.828100
					CHANNELS 3 Xrotation Yrotation Zrotation
					JOINT newVegas:Left_Collar1
					{
						OFFSET 14.783401 10.540405 -1.259500
						CHANNELS 3 Xrotation Yrotation Zrotation
						End Site
						{
							OFFSET 0.000000 18.199875 0.000000
						}
					}
				}
				JOINT newVegas:Collar_Back
				{
					OFFSET 0.000000 15.630707 -20.132601
					CHANNELS 3 Xrotation Yrotation Zrotation
					End Site
					{
						OFFSET 0.000000 22.523010 0.000000
					}
				}
				JOINT newVegas:Left_Peck
				{
					OFFSET 17.239599 -5.132599 25.482599
					CHANNELS 3 Xrotation Yrotation Zrotation
					End Site
					{
						OFFSET 0.000000 22.523010 0.000000
					}
				}
				JOINT newVegas:Right_Peck
				{
					OFFSET -17.239599 -5.132202 25.482599
					CHANNELS 3 Xrotation Yrotation Zrotation
					End Site
					{
						OFFSET 0.000000 22.523010 0.000000
					}
				}
				JOINT newVegas:Right_Collar
				{
					OFFSET -18.625099 8.655792 8.828100
					CHANNELS 3 Xrotation Yrotation Zrotation
					JOINT newVegas:Right_Collar1
					{
						OFFSET -14.783401 10.539993 -1.259500
						CHANNELS 3 Xrotation Yrotation Zrotation
						End Site
						{
							OFFSET 0.000000 18.199631 0.000000
						}
					}
				}
			}
		}
		JOINT newVegas:Belly
		{
			OFFSET 0.000000 -6.540398 9.014299
			CHANNELS 3 Xrotation Yrotation Zrotation
			End Site
			{
				OFFSET 0.000000 11.566666 0.000000
			}
		}
	}
	JOINT newVegas:ElvisFacialAnim_Joint
	{
		OFFSET 1.000000 -95.330101 -8.825800
		CHANNELS 3 Xrotation Yrotation Zrotation
		End Site
		{
			OFFSET 0.000000 35.315800 0.000000
		}
	}
}
MOTION
Frames: 4
Frame Time: 0.016667
-3.526494 78.410347 3.057340 11.660452 -49.374427 11.268425 0.000000 -0.000001 0.000000 -69.006999 20.606686 47.788184 51.256642 -22.124391 3.397203 2.960955 1.488350 -15.125341 -0.000000 -0.000002 -0.000000 -0.000000 -0.000000 0.000001 -33.116066 3.851064 -30.939828 58.819438 4.953724 -6.674930 -30.773615 -6.443076 30.151874 -0.000000 -0.000000 -0.000000 0.000000 0.000000 0.000001 10.972584 2.720605 -2.032964 6.100716 5.566534 -4.284688 -5.786913 6.328147 -3.046186 0.458771 1.873441 -0.022635 0.458756 1.873426 -0.022623 -0.000000 -0.000001 0.000001 0.458760 1.873447 -0.022632 0.458838 1.873418 -0.022629 -0.000000 -0.000000 0.000001 -0.000000 -0.000001 -0.000000 -1.882852 -16.244763 -2.883354 -10.641492 2.224945 -45.488356 -22.862381 -25.786228 -15.871703 2.491071 -2.511897 6.860481 18.457949 -9.513769 13.216584 -1.150206 11.255277 -8.400889 -0.000003 -0.000001 -0.000006 -1.232785 -5.771922 -0.192309 0.133960 -0.197641 -4.602074 -0.000001 0.000001 -0.000002 1.884752 4.663376 -4.597373 0.476678 -1.009840 -12.986432 -0.000001 -0.000001 0.000001 3.024641 7.938938 -14.103448 -0.708061 -0.566182 -18.895741 -0.000000 0.000003 0.000000 2.010367 6.306002 -22.386514 -0.815380 -0.210777 -16.746497 -0.000003 -0.000003 0.000002 0.000000 0.000000 -0.000000 0.000000 0.000000 -0.000000 -0.000001 0.000000 -0.000000 -0.000001 0.000002 -0.000002 -0.000000 0.000002 -0.000003 -0.000001 0.000002 -0.000002 -0.000001 0.000003 -0.000002 -5.080957 24.428084 1.493067 6.647368 -34.818549 57.612898 -21.031973 44.833795 19.961656 -0.087236 35.608467 7.474285 55.149567 18.649534 -29.698291 -0.442575 -14.180539 7.313130 0.000002 -0.000000 -0.000001 5.673427 7.585045 36.844175 1.050468 3.824465 68.900203 -0.000001 -0.000001 -0.000001 -0.125682 1.886093 45.000753 -1.169013 3.204693 68.417677 0.000002 0.000000 -0.000000 -5.312005 1.216656 58.508821 -0.745194 1.667557 48.011271 0.000002 0.000001 -0.000000 -7.756768 -9.376477 47.264038 -0.526070 1.541598 45.600494 0.000006 0.000005 -0.000001 0.000002 -0.000001 0.000001 0.000003 0.000001 -0.000000 0.000002 -0.000001 -0.000000 0.000002 -0.000002 -0.000001 0.000002 -0.000002 -0.000000 0.000002 -0.000002 -0.000001 0.000002 -0.000002 0.000002 0.000001 -0.000001 -0.000000 0.000001 -0.000001 -0.000000 0.000001 -0.000001 -0.000000 0.000001 -0.000001 -0.000000 0.000001 -0.000001 -0.000000 0.000001 -0.000001 -0.000000 0.000001 -0.000001 -0.000000 -0.000002 0.000001 -0.000001 0.000000 -0.000001 0.000000 
-3.566438 78.409691 3.045999 11.644600 -49.518953 11.272035 -0.000000 0.000002 -0.000000 -68.890456 20.608235 47.858712 51.296199 -21.958554 3.462256 2.885260 1.509367 -15.243503 0.000000 -0.000000 0.000000 0.000000 -0.000001 0.000001 -33.154080 3.957144 -30.872216 58.885021 4.956370 -6.674050 -30.786313 -6.411186 30.123597 -0.000000 -0.000000 0.000000 0.000002 0.000000 0.000001 10.970337 2.777805 -2.047704 6.133756 5.604295 -4.247334 -5.764549 6.336169 -3.016237 0.454579 1.881894 -0.068544 0.454577 1.881901 -0.068549 0.000002 0.000002 -0.000000 0.454588 1.882063 -0.068578 0.454566 1.881560 -0.068482 -0.000001 -0.000001 0.000000 0.000002 0.000002 -0.000000 -1.902991 -16.283499 -3.000824 -10.665524 2.222330 -45.395138 -22.827816 -25.744959 -15.838637 2.461423 -2.435298 6.885875 18.464911 -9.494853 13.214781 -1.134548 11.275822 -8.403370 0.000001 0.000003 -0.000003 -1.233055 -5.735412 -0.262385 0.133851 -0.200955 -4.674396 0.000002 0.000001 -0.000001 1.884283 4.658513 -4.668115 0.474430 -1.015921 -13.148157 -0.000002 -0.000001 -0.000001 3.023534 7.934857 -14.172975 -0.709380 -0.572798 -19.056732 -0.000000 0.000001 0.000001 2.010024 6.304107 -22.455440 -0.816759 -0.219709 -16.906989 -0.000000 0.000004 -0.000001 -0.000001 0.000001 -0.000001 -0.000001 0.000001 -0.000001 -0.000002 0.000001 -0.000001 0.000002 0.000001 0.000001 0.000002 0.000000 -0.000002 0.000002 0.000001 0.000001 0.000001 0.000002 0.000001 -5.036447 24.265314 1.406470 6.704550 -34.680306 57.476062 -20.413772 44.915426 19.709416 0.211645 35.320233 6.345754 55.149550 18.649550 -29.698287 -0.442558 -14.180560 7.313219 0.000001 -0.000002 -0.000001 5.673407 7.585016 36.844124 1.050451 3.824499 68.900237 -0.000000 0.000001 0.000003 -0.125553 1.886264 45.000783 -1.169022 3.204667 68.417643 -0.000002 -0.000001 0.000000 -5.312130 1.216715 58.508746 -0.743522 1.669654 48.011257 -0.000001 0.000001 -0.000000 -7.756768 -9.376514 47.264014 -0.524055 1.543674 45.600464 -0.000000 -0.000000 0.000002 0.000002 -0.000001 0.000001 0.000002 -0.000002 0.000002 0.000002 -0.000001 -0.000000 0.000002 -0.000003 -0.000004 0.000002 -0.000003 -0.000003 0.000002 -0.000003 -0.000004 0.000002 -0.000003 -0.000003 0.000001 -0.000001 0.000000 0.000001 -0.000001 0.000000 0.000001 -0.000001 0.000000 0.000001 -0.000001 0.000000 0.000001 -0.000001 0.000000 0.000001 -0.000001 0.000000 0.000001 -0.000001 0.000000 -0.000001 -0.000001 0.000000 -0.000000 0.000002 -0.000000 
-3.605519 78.406738 3.034642 11.499362 -49.658289 11.196948 -0.000000 -0.000001 -0.000000 -68.694518 20.628923 47.904597 51.317691 -21.983500 3.525117 2.793487 1.529152 -15.365019 0.000000 -0.000000 0.000000 0.000000 -0.000001 -0.000000 -33.121824 4.062451 -30.851380 58.962127 4.999147 -6.668729 -30.740052 -6.370257 30.094025 -0.000000 -0.000002 0.000000 0.000002 0.000003 -0.000001 10.990203 2.818062 -2.069370 6.210101 5.609813 -4.231208 -5.697413 6.318245 -3.012862 0.428781 1.894664 -0.098621 0.428734 1.894658 -0.098585 0.000001 0.000000 -0.000000 0.428835 1.894759 -0.098640 0.428823 1.894612 -0.098614 -0.000000 -0.000000 -0.000001 0.000001 0.000000 -0.000000 -1.908075 -16.258751 -3.020667 -10.687439 2.247380 -45.360038 -22.769667 -25.731445 -15.803253 2.450938 -2.428315 6.875490 18.484917 -9.440107 13.209258 -1.089343 11.335336 -8.410314 0.000005 -0.000003 0.000004 -1.233497 -5.629214 -0.465557 0.133380 -0.210500 -4.883981 0.000002 0.000004 -0.000003 1.883518 4.644735 -4.873352 0.467264 -1.037522 -13.616827 0.000002 0.000002 -0.000000 3.021443 7.923304 -14.374510 -0.715593 -0.596524 -19.523327 0.000002 -0.000001 0.000000 2.012100 6.297359 -22.655565 -0.821032 -0.245830 -17.372248 -0.000000 -0.000002 0.000002 0.000001 0.000000 -0.000001 0.000001 0.000000 -0.000001 0.000000 0.000001 -0.000001 0.000001 0.000001 -0.000000 0.000002 0.000001 -0.000003 0.000001 0.000001 -0.000000 0.000001 0.000002 -0.000000 -5.072082 24.344580 1.612733 6.672739 -34.749632 56.881710 -18.584964 45.084023 18.881604 0.891890 34.215915 3.308631 55.149526 18.649565 -29.698270 -0.442576 -14.180568 7.313331 0.000001 0.000000 0.000001 5.673423 7.585012 36.844124 1.050400 3.824498 68.900298 -0.000004 -0.000004 -0.000002 -0.125387 1.886455 45.000766 -1.169058 3.204655 68.417704 -0.000002 0.000001 0.000000 -5.312269 1.216755 58.508807 -0.741742 1.671704 48.011128 -0.000003 0.000002 -0.000001 -7.756764 -9.376537 47.264014 -0.522050 1.545796 45.600416 0.000003 -0.000002 0.000003 0.000000 -0.000001 -0.000001 0.000002 -0.000001 0.000003 0.000000 -0.000001 -0.000001 0.000000 0.000001 0.000003 0.000000 0.000001 0.000003 0.000000 0.000001 0.000003 0.000000 0.000001 0.000004 0.000002 -0.000001 -0.000000 0.000002 -0.000001 -0.000000 0.000002 -0.000001 -0.000000 0.000002 -0.000001 -0.000000 0.000002 -0.000001 -0.000000 0.000002 -0.000001 -0.000000 0.000002 -0.000001 -0.000000 -0.000000 -0.000001 -0.000000 -0.000000 -0.000001 -0.000000 
-3.642931 78.408020 2.993197 11.419933 -49.845143 11.184739 0.000000 0.000001 -0.000000 -68.503915 20.676333 47.954464 51.303938 -21.846066 3.621450 2.729358 1.526309 -15.527518 -0.000000 -0.000000 0.000000 -0.000000 0.000001 -0.000000 -33.183525 4.235283 -30.784148 59.091238 5.029776 -6.663521 -30.721791 -6.326232 30.039472 0.000000 0.000000 0.000000 0.000001 -0.000003 -0.000001 10.998922 2.854682 -2.089135 6.262219 5.612150 -4.216224 -5.653938 6.298713 -3.010386 0.421707 1.919859 -0.157107 0.421717 1.919875 -0.157110 -0.000000 0.000002 0.000001 0.421780 1.919886 -0.157115 0.421717 1.919864 -0.157106 -0.000001 -0.000000 0.000001 -0.000000 0.000002 0.000001 -1.889329 -15.962410 -3.044855 -10.743599 2.048047 -45.378961 -22.673243 -25.677857 -15.719317 2.461754 -2.430186 6.807721 18.516887 -9.352239 13.200229 -1.015002 11.429196 -8.416362 -0.000000 0.000000 -0.000004 -1.230628 -5.459041 -0.790875 0.132228 -0.225663 -5.219951 -0.000003 -0.000002 0.000001 1.882258 4.622876 -5.202237 0.455174 -1.074106 -14.367979 -0.000000 -0.000000 0.000000 3.018063 7.905083 -14.697558 -0.726059 -0.634170 -20.270962 -0.000001 0.000001 0.000003 2.014184 6.287045 -22.976345 -0.828517 -0.287389 -18.117859 0.000001 0.000002 0.000002 -0.000001 0.000001 -0.000003 -0.000001 0.000001 -0.000003 -0.000002 0.000001 -0.000003 -0.000000 0.000001 -0.000000 0.000000 0.000000 -0.000001 -0.000000 0.000001 -0.000000 -0.000001 0.000001 -0.000000 -5.079896 24.138010 1.822007 6.573138 -34.379539 55.764550 -14.830238 45.143299 17.007531 2.052977 32.012362 -1.966976 55.149505 18.649558 -29.698294 -0.442603 -14.180563 7.313395 0.000000 -0.000001 -0.000002 5.673386 7.585044 36.844144 1.050432 3.824491 68.900264 -0.000001 -0.000001 -0.000001 -0.125247 1.886619 45.000787 -1.169006 3.204691 68.417691 0.000000 -0.000001 0.000001 -5.312386 1.216877 58.508773 -0.740114 1.673720 48.011141 -0.000001 0.000001 0.000000 -7.756701 -9.376539 47.264052 -0.520057 1.547903 45.600307 0.000001 -0.000000 0.000002 -0.000001 0.000000 -0.000001 -0.000001 0.000000 0.000001 -0.000001 -0.000000 -0.000001 0.000001 0.000002 -0.000000 0.000001 0.000003 0.000001 0.000001 0.000002 -0.000000 0.000001 0.000003 0.000002 0.000000 -0.000001 0.000001 0.000000 -0.000001 0.000001 0.000000 -0.000001 0.000001 0.000000 -0.000001 0.000001 0.000000 -0.000001 0.000001 0.000000 -0.000001 0.000001 0.000000 -0.000001 0.000001 -0.000001 -0.000002 0.000001 0.000000 0.000001 -0.000000 
